<svg xmlns="http://www.w3.org/2000/svg" viewBox="0 0 300 300" width="300" height="300" style="width:100%;height:100%;transform:translate3d(0,0,0);content-visibility:visible"><defs><clipPath id="a"><path d="M0 0h300v300H0z"/></clipPath></defs><g clip-path="url(#a)"><g style="display:block"><path fill="#AD2314" d="m62.846 189.172 10.434-4.49v74.928l-10.434 4.715z"/><path fill="#E9301F" d="M22.536 189.127H62.87v74.928H22.536z"/><path fill="#FF595D" d="M32.947 184.775h40.252l-10.349 4.603H22.597z"/></g><g style="display:block"><path fill="#6F8ABB" d="m124.49 140.872 10.434-7.376v123.083l-10.434 7.745z"/><path fill="#7C9CD5" d="M84.179 140.797h40.335v123.084H84.179z"/><path fill="#9BB8EB" d="M94.59 133.647h40.252l-10.35 7.562H84.24z"/></g><g style="display:block"><path fill="#D8AA25" d="m189.937 118.416 10.434-8.717v145.473l-10.434 9.153z"/><path fill="#F9CA3E" d="M149.627 118.328h40.334v145.474h-40.334z"/><path fill="#F9D65A" d="M160.038 109.878h40.252l-10.351 8.936h-40.251z"/></g><g style="display:block"><path fill="#3E9F5D" d="m256.641 87.487 10.434-10.565v176.31l-10.434 11.092z"/><path fill="#3DB365" d="M216.33 87.38h40.335v176.31H216.33z"/><path fill="#84C996" d="M226.743 77.139h40.252l-10.351 10.83h-40.252z"/></g><path stroke="#0762C8" stroke-width="7" d="M-122.5 32S-112-88-46.414-23.49c7.646 7.521 5.581-67.51 74.001-18.373C108.319 16.116 112.333-114 112.333-114" fill="none" transform="matrix(.85714 0 0 1 150 150)" style="display:block"/><path stroke="#0762C8" stroke-width="7" d="m61.118-99.777 34.257-11.973 24.099 6.48" fill="none" transform="translate(150 150)" style="display:block"/></g></svg>