<svg xmlns="http://www.w3.org/2000/svg" xmlns:xlink="http://www.w3.org/1999/xlink" viewBox="0 0 500 500" width="100%" height="100%" style="transform:translate3d(0,0,0)" xmlns:v="https://vecta.io/nano"><style><![CDATA[.B{fill:none}.C{stroke:#000}.D{stroke-linejoin:round}.E{fill:#fff}.F{stroke-linecap:round}.G{fill:#ffa733}.H{fill:#7b4cff}.I{stroke-miterlimit:10}]]></style><defs><clipPath id="A"><path d="M0 0h500v500H0z"/></clipPath><path id="B" d="M207.505 334.975 220.97 262.6h-4.645l-13.31 72.15a12.44 12.44 0 0 0 12.24 14.7h18.455v-3.865h-17.385a8.97 8.97 0 0 1-8.82-10.61z"/><path id="C" d="M326.67 308.64H159.68c-4.89 0-9.555-3.965-10.42-8.855l-18.965-107.55c-.865-4.89 2.405-8.855 7.295-8.855h166.99c4.89 0 9.555 3.965 10.42 8.855l18.965 107.55c.865 4.89-2.405 8.855-7.295 8.855z"/><path id="D" d="m260.2 229.95-.95-4.69c-.07-.34.31-.57.69-.41l5.335 2.22c.39.16.48.605.16.785l-4.39 2.47c-.31.175-.78-.03-.85-.37z"/><path id="E" d="m403.295 266.72-2.12-37.3-35.2 2.625v31.56a10.68 10.68 0 0 1-9.185 10.58l-3.08.44s4.135 5.445 31.26 6.77c21.62 1.06 29.335-4.14 29.335-4.14l-3.08-.82a10.69 10.69 0 0 1-7.925-9.725z"/><path id="F" d="M400.08 208.675s8.84 33.805-12.29 48.99-46.16 2.545-49.13-20.385l-.37.035a3.705 3.705 0 0 1-3.41-5.765l3.47-5.15c-.87-18.835 3.22-30.095 3.22-30.095s14.715 18.365 58.51 12.37z"/><path id="G" d="M290.83 378.385l7.38-18.375 41.855 13.59s-7.99 18.73-16.38 33.86c-6.055 10.925-26.535 23.365-54.74.49-24.705-20.035-43.525-37.92-43.525-37.92s-17.835-1.78-18.905-3.16 14.41-5.045 14.41-5.045-16.75.565-16.285-.65 14.53-4.215 14.53-4.215-12.985.735-15.5-2.25 17.1-4.25 17.1-4.25-11.13-6.39-11.485-8.94 19.59 6.015 21.055 7.265 60.485 29.6 60.485 29.6z"/><path id="H" d="m327.005 445.53 27.9-107.01a28.74 28.74 0 0 1 27.815-21.49h67.065a28.75 28.75 0 0 1 28.745 28.745v99.76H327.005z"/><path id="I" d="M387.06 104.99H194.855c-2.955 0-5.775-2.395-6.295-5.35l-5.065-28.73c-.52-2.955 1.45-5.35 4.405-5.35h192.205c2.955 0 5.775 2.395 6.295 5.35l5.065 28.73c.52 2.955-1.45 5.35-4.405 5.35z"/><path id="J" d="M282.99 163.05H90.785c-2.955 0-5.775-2.395-6.295-5.35l-5.065-28.73c-.52-2.955 1.45-5.35 4.405-5.35h192.205c2.955 0 5.775 2.395 6.295 5.35l5.065 28.73c.52 2.955-1.45 5.35-4.405 5.35z"/></defs><g clip-path="url(#A)"><path d="M402.39 399.085H69.08l-47.275-28.17" class="B C D F"/><path d="M397.33 375.87H176.925l-31.26-18.63h220.41l31.26 18.63z" class="E"/><path d="M397.33 375.87H176.925l-31.26-18.63h220.41l31.26 18.63z" class="B C D"/><path d="M81.035 250.3c3.97 11.02-6.775 43.775-6.775 43.775s-29.165-18.375-33.135-29.4a21.21 21.21 0 0 1 39.91-14.38z" class="G"/><path d="m61.355 252.115 30.41 96.63" class="E"/><path d="m61.355 252.115 30.41 96.63" class="B C D F"/><path d="M46.35 280.22c7.465 2.175 20.845 20.735 20.845 20.735s-21.255 8.475-28.72 6.305a14.08 14.08 0 0 1 7.875-27.035z" class="G"/><path d="m78.22 305.705-41.31-15.45" class="E"/><path d="m78.22 305.705-41.31-15.45" class="B C D F"/><path d="m50.61 295.38-2.05-11.54" class="E"/><path d="m50.61 295.38-2.05-11.54" class="B C D F"/><path d="m59.735 298.975-20.04 4.71" class="E"/><path d="m59.735 298.975-20.04 4.71" class="B C D F"/><path d="m70.07 279.795-14.615-3.335" class="E"/><path d="m70.07 279.795-14.615-3.335" class="B C D F"/><path d="m66.43 268.23 9.025-14.975" class="E"/><path d="m66.43 268.23 9.025-14.975" class="B C D F"/><path d="M134.21 287.47c-4.335 9.835-32.205 24.8-32.205 24.8s-7.75-30.665-3.415-40.505a19.465 19.465 0 0 1 35.62 15.7z" class="G"/><path d="m87.15 347.235 37-82.81" class="E"/><path d="m87.15 347.235 37-82.81" class="B C D F"/><path d="m102.62 279.34 8.075 15.205" class="E"/><path d="m102.62 279.34 8.075 15.205" class="B C D F"/><path d="m114.82 285.305 17.86-2.38" class="E"/><path d="m114.82 285.305 17.86-2.38" class="B C D F"/><path d="m115.39 267.335 4.31 7.055" class="E"/><path d="m115.39 267.335 4.31 7.055" class="B C D F"/><path d="M112.09 337.835H65.04a3.8 3.8 0 1 1 0-7.6h47.05a3.8 3.8 0 1 1 0 7.6zm-15.72 42.77H80.765c-12.395 0-21.42-11.755-18.22-23.73l5.09-19.04H109.5l5.09 19.04c3.2 11.975-5.825 23.73-18.22 23.73z"/><path stroke="#fff" d="M67.635 337.835H90.68" class="B D F"/><path d="M321.23 308.64H154.24c-4.89 0-9.555-3.965-10.42-8.855l-18.965-107.55c-.865-4.89 2.405-8.855 7.295-8.855h166.99c4.89 0 9.555 3.965 10.42 8.855l18.965 107.55c.865 4.89-2.405 8.855-7.295 8.855z"/><path d="m240.15 334.975 13.465-72.375H220.34l-13.305 72.145a12.44 12.44 0 0 0 12.24 14.7h47.08v-3.865H248.97a8.97 8.97 0 0 1-8.82-10.61z"/><use xlink:href="#B" class="E"/><use xlink:href="#B" class="B C D"/><path d="M233.705 349.45h32.645v-3.865h-32.645v3.865z" class="E"/><path d="M233.705 349.45h32.645v-3.865h-32.645v3.865z" class="B C D"/><use xlink:href="#C" class="E"/><use xlink:href="#C" class="B C D"/><path fill="#ff4e95" d="M239.325 259.195h-79.56c-2.33 0-4.555-1.89-4.965-4.22l-9.03-51.24c-.41-2.33 1.145-4.22 3.475-4.22H228.8c2.33 0 4.555 1.89 4.965 4.22l9.035 51.24c.41 2.33-1.145 4.22-3.475 4.22z"/><path d="M187.465 237.12l-3.125-15.45c-.23-1.125 1.025-1.875 2.275-1.355l17.575 7.31c1.28.53 1.575 1.985.52 2.58l-14.45 8.14c-1.025.58-2.57-.1-2.795-1.225zm-9.86 41.79c.825 4.665-2.29 8.445-6.955 8.445s-9.115-3.78-9.935-8.445 2.29-8.445 6.955-8.445 9.115 3.78 9.935 8.445z" class="E"/><path d="M177.605 278.915c.825 4.665-2.29 8.445-6.955 8.445s-9.115-3.78-9.935-8.445 2.29-8.445 6.955-8.445 9.115 3.78 9.935 8.445z" class="B C D"/><path d="M172.38 277.845c.33 1.885-.925 3.41-2.81 3.41a4.24 4.24 0 0 1-4.01-3.41c-.33-1.885.925-3.41 2.81-3.41s3.68 1.525 4.01 3.41zm-1.735 9.515c2.42 0 4.42-1.02 5.67-2.645-1.63-2.07-4.145-3.455-6.745-3.455s-4.63 1.385-5.525 3.455c1.825 1.63 4.185 2.645 6.605 2.645z"/><path d="M183.885 275.5h59.71m-58.505 6.82h33.645" class="B C D F"/><path d="M261.58 205.425h-7.525a.5.5 0 0 1-.47-.4l-.855-4.85a.325.325 0 0 1 .33-.4h7.525a.5.5 0 0 1 .47.4l.855 4.85a.325.325 0 0 1-.33.4z"/><path d="m256.675 203.335-.295-1.46c-.02-.105.095-.175.215-.13l1.665.69c.12.05.15.19.05.245l-1.365.77c-.1.055-.245-.01-.265-.115z" class="E"/><path stroke-width=".311" d="M262.81 201.73h8.235m-7.925 1.74h3.49" class="B C D F"/><path d="M275.945 236.65H251.79a1.59 1.59 0 0 1-1.505-1.28l-2.745-15.56a1.04 1.04 0 0 1 1.055-1.28h24.155c.71 0 1.38.575 1.505 1.28L277 235.37a1.04 1.04 0 0 1-1.055 1.28z"/><use xlink:href="#D" class="E"/><path d="M279.89 224.795h26.425m-25.435 5.59h11.205" class="B C D F"/><path d="M280.315 261.64H256.16a1.59 1.59 0 0 1-1.505-1.28l-2.745-15.56a1.04 1.04 0 0 1 1.055-1.28h24.155c.71 0 1.38.575 1.505 1.28l2.745 15.56a1.04 1.04 0 0 1-1.055 1.28z"/><path d="m264.565 254.935-.95-4.69c-.07-.34.31-.57.69-.41l5.335 2.22c.39.16.48.605.16.785l-4.39 2.47c-.31.175-.78-.03-.85-.37z" class="E"/><path d="M284.26 249.785h26.425m-25.44 5.59h11.205" class="B C D F"/><path d="M284.68 286.625h-24.155a1.59 1.59 0 0 1-1.505-1.28l-2.745-15.56a1.04 1.04 0 0 1 1.055-1.28h24.155c.71 0 1.38.575 1.505 1.28l2.745 15.56a1.04 1.04 0 0 1-1.055 1.28z"/><path d="m268.935 279.925-.95-4.69c-.07-.34.31-.57.69-.41l5.335 2.22c.39.16.48.605.16.785l-4.39 2.47c-.31.175-.78-.03-.85-.37z" class="E"/><path d="M288.625 274.77h26.425m-25.435 5.59h11.205" class="B C D F"/><path d="M276.15 302.565z"/><g class="E"><path d="M276.15 302.565z"/><use xlink:href="#E"/></g><use xlink:href="#E" class="B C I"/><path d="M448.07 306.2c-11.38-24.705-32.83-29.6-32.83-29.6l-60.975-2.65s-46.975 7.345-41.215 65.735c1.875 18.985 5.99 30.55 9.78 44.08 6.32 22.55 13.125 36.135 13.125 36.135H438.06s25.43-80.22 10.01-113.7z" class="H"/><use xlink:href="#F" class="E"/><use xlink:href="#F" class="B C I"/><path d="M346.85 225.155a2.49 2.49 0 1 0 4.925-.725 2.49 2.49 0 0 0-4.925.725z"/><path d="M354.12 212.685s-4.57-2.235-8.375.76" class="B C D F"/><path d="M347.36 235.97a5.87 5.87 0 1 0 11.62-1.71 5.87 5.87 0 1 0-11.62 1.71z" class="G"/><path d="m386.3 267.925 57.235-18.15s-1.59-67.05-38.53-82.74C366.64 150.74 343.92 178.34 343.92 178.34s-25.615 11.155-5.52 36.65c0 0-1.025-8.26 3.165-18.685 0 0 9.035 21.34 36.61 23.075 0 0 9.73-6.64 13.495 3 3.57 9.13-1.86 16.98-11.43 16.715l6.055 28.83z"/><g class="B C D F"><path d="M382.74 224.835s-5.655 1.31-6.2 8.945"/><path d="M377.52 229.62s2.685-1.825 5.355-.075m-11.045-1.9s.525-5.275 6.35-8.265m-20.275 33.065s6.9-4.215 3.785-13.085"/></g><use xlink:href="#G" class="E"/><use xlink:href="#G" class="B C D"/><path d="M348.52 374.01s28.33-55.43 13.04-77.82-37.72-19.815-50.935 12.025-18.175 50.57-12.03 54.93c9.855 6.99 37.94 15.805 45.305 14.09 3.425-.8 4.615-3.225 4.615-3.225z" class="H"/><g class="B C D F"><path d="M290.83 378.385s-3 6.685-1.905 13.225m-68.71 53.92h269.1"/></g><use xlink:href="#H" class="E"/><use xlink:href="#H" class="B C D"/><use xlink:href="#I" class="E"/><use xlink:href="#I" class="B C D"/><path fill="#ff4e95" d="M225.19 96.995h-24.355a3.37 3.37 0 0 1-3.185-2.71l-3.18-18.02c-.265-1.495.735-2.71 2.23-2.71h24.355c1.495 0 2.925 1.215 3.185 2.71l3.18 18.02c.265 1.495-.735 2.71-2.23 2.71z"/><path d="M210.63 86.225c.26 1.48.155 2.615-.32 3.4s-1.305 1.18-2.485 1.18a3.865 3.865 0 0 1-2.885-1.155c-.755-.77-1.265-1.875-1.535-3.315l-.35-1.975c-.265-1.495-.155-2.635.33-3.41s1.31-1.165 2.48-1.165 2.13.385 2.885 1.155 1.265 1.87 1.535 3.31l.35 1.975zm-2.51-2.17c-.155-.89-.39-1.535-.705-1.94a1.5 1.5 0 0 0-1.245-.61c-.5 0-.835.195-1.005.58s-.19.99-.06 1.81l.46 2.61a4.775 4.775 0 0 0 .7 1.95 1.485 1.485 0 0 0 1.26.635c.52 0 .86-.205 1.02-.61s.17-1.03.03-1.87l-.45-2.55zm9.895 6.605h-2.13l-1.445-8.2-2.4.79-.305-1.73 4.16-1.59h.23l1.895 10.735z" class="E"/><path d="M237.46 79.755h117.425m-115.5 10.905h55.165" class="B C D F"/><use xlink:href="#J" class="E"/><use xlink:href="#J" class="B C D"/><path d="M121.125 155.055H96.77a3.37 3.37 0 0 1-3.185-2.71l-3.18-18.02c-.265-1.495.735-2.71 2.23-2.71h24.355c1.495 0 2.925 1.215 3.185 2.71l3.18 18.02c.265 1.495-.735 2.71-2.23 2.71z" class="H"/><path d="M106.56 144.285c.26 1.48.155 2.615-.32 3.4s-1.305 1.18-2.485 1.18a3.865 3.865 0 0 1-2.885-1.155c-.755-.77-1.265-1.875-1.535-3.315l-.35-1.975c-.265-1.495-.155-2.635.33-3.41s1.31-1.165 2.48-1.165 2.13.385 2.885 1.155 1.265 1.87 1.535 3.31l.35 1.975zm-2.51-2.17c-.155-.89-.39-1.535-.705-1.94a1.5 1.5 0 0 0-1.245-.61c-.5 0-.835.195-1.005.58s-.19.99-.06 1.81l.46 2.61a4.775 4.775 0 0 0 .7 1.95 1.485 1.485 0 0 0 1.26.635c.52 0 .86-.205 1.02-.61s.17-1.03.03-1.87l-.45-2.55zm12.075 6.605h-7.35l-.255-1.46 2.815-3.695c.385-.52.655-.975.815-1.36a1.935 1.935 0 0 0 .145-1.105 1.975 1.975 0 0 0-.56-1.125 1.535 1.535 0 0 0-1.105-.41c-.48 0-.83.165-1.05.5s-.28.765-.185 1.305h-2.135a3.235 3.235 0 0 1 .15-1.79 2.52 2.52 0 0 1 1.1-1.27 3.58 3.58 0 0 1 1.855-.46 4.4 4.4 0 0 1 2.715.795 3.455 3.455 0 0 1 1.315 2.245 3.335 3.335 0 0 1-.125 1.62 6.95 6.95 0 0 1-1.075 1.92L111.21 147h4.61l.3 1.715z" class="E"/><path d="M133.395 137.815H250.82m-115.5 10.905h55.165" class="B C D F"/></g></svg>