<svg xmlns="http://www.w3.org/2000/svg" viewBox="0 0 500 500" width="500" height="500" style="width:100%;height:100%;transform:translate3d(0,0,0);content-visibility:visible"><defs><clipPath id="a"><path d="M0 0h500v500H0z"/></clipPath></defs><g clip-path="url(#a)"><g style="display:block"><path fill="#6C31AC" d="M323.82 240.886s-3.53 17.36 3.916 19.109 20.832-4.933 31.855.781 5.506 21.755 16.798 24.228c11.293 2.473 21.525 3.266 22.055 27.09s-1.11 26.585-1.11 26.585l-76.124-23.844-19.804-64.597z"/><path stroke-linejoin="round" stroke="#000" stroke-width=".75" d="M323.82 240.886s-3.53 17.36 3.916 19.109 20.832-4.933 31.855.781 5.506 21.755 16.798 24.228c11.293 2.473 21.525 3.266 22.055 27.09s-1.11 26.585-1.11 26.585l-76.124-23.844-19.804-64.597z" fill="none"/></g><g style="display:block"><path fill="#6C31AC" d="m409.912 132.747.17 19.745 32-21.958z"/><path stroke-linecap="round" stroke-linejoin="round" stroke="#000" d="m409.912 132.747.17 19.745 32-21.958z" fill="none"/><path fill="#D6CEFC" d="m399.019 129.854 10.383 7.319 30.298-6.468-23.491 10.894 16.341 13.106 24.512-28.936z"/><path stroke-linecap="round" stroke-linejoin="round" stroke="#000" d="m399.019 129.854 10.383 7.319 30.298-6.468-23.491 10.894 16.341 13.106 24.512-28.936z" fill="none"/><path stroke-linecap="round" stroke-linejoin="round" stroke="#FFF" d="m443.954 135.3-11.745 14.044" fill="none"/><path stroke-linecap="round" stroke-linejoin="round" stroke="#000" stroke-width=".75" d="M404.636 148.832s-24.001 16.851-58.724 6.638m74.554-2.043s-17.362 20.427-63.319 21.958" fill="none"/></g><g style="display:block"><path fill="#FFAC00" d="M184.324 186.452c0 17.767-14.403 32.17-32.17 32.17s-32.17-14.403-32.17-32.17 14.403-32.17 32.17-32.17 32.17 14.403 32.17 32.17"/><path stroke-linecap="round" stroke-linejoin="round" stroke="#000" stroke-width=".75" d="M184.324 186.452c0 17.767-14.403 32.17-32.17 32.17s-32.17-14.403-32.17-32.17 14.403-32.17 32.17-32.17 32.17 14.403 32.17 32.17" fill="none"/><path fill="#FFAC00" d="M175.261 186.452c0 12.761-10.345 23.106-23.106 23.106s-23.108-10.345-23.108-23.106 10.346-23.106 23.108-23.106c12.761 0 23.106 10.345 23.106 23.106"/><path stroke-linecap="round" stroke-linejoin="round" stroke="#000" stroke-width=".75" d="M175.261 186.452c0 12.761-10.345 23.106-23.106 23.106s-23.108-10.345-23.108-23.106 10.346-23.106 23.108-23.106c12.761 0 23.106 10.345 23.106 23.106" fill="none"/><path d="M155.777 192.689c0-2.287-1.307-3.377-4.393-4.466l-1.343-.472c-3.812-1.343-6.063-3.304-6.063-6.934 0-3.704 3.013-6.608 7.188-6.608 3.667 0 6.572 2.178 6.789 5.3-.29.763-.907 1.126-1.597 1.126-.799 0-1.706-.508-2.142-2.396l-.618-2.76 1.888 1.307c-1.524-.616-2.831-.798-3.921-.798-2.686 0-4.756 1.343-4.756 4.066 0 2.324 1.453 3.594 4.03 4.429l1.38.472c4.901 1.707 6.39 4.067 6.39 7.044 0 3.885-2.977 6.644-7.915 6.644-3.885 0-6.826-2.142-6.971-5.301.327-.726.836-1.125 1.634-1.125.872 0 1.67.472 2.106 2.396l.617 2.759-1.924-1.307c1.67.654 3.304.835 4.72.835 2.977 0 4.901-1.525 4.901-4.211m-5.265-6.209h1.452v15.866h-1.452zm.037-15.538h1.452v15.538h-1.452z"/><path stroke-linecap="round" stroke-linejoin="round" stroke="#000" stroke-width=".75" d="M80.941 116.303s36.426 17.022 46.638 34.384m-40.169-7.15s24.17 4.086 36.085 12.256m52.339-4s13.278 5.106 15.32 21.702" fill="none"/></g><g style="display:block"><path fill="#FFCDB1" d="m171.409 262.472-.34 2.384s-7.32 8.425-23.66 2.807c-16.34-5.617-20.511-10.467-24.383-19.786-2.706-6.513-1.149-11.106 2.255-11.957s6.128-.342 8 2.041c0 0 4.085-2.723 8.851.681 0 0 4.937-1.02 9.532 2.214 4.596 3.234 9.702 7.829 11.064 11.914 0 0 8.834-8.523 17.038-6.198a1.89 1.89 0 0 1 1.366 1.68c.218 2.765-.346 9.465-9.723 14.22"/><path stroke-linejoin="round" stroke="#000" stroke-width=".75" d="m171.409 262.472-.34 2.384s-7.32 8.425-23.66 2.807c-16.34-5.617-20.511-10.467-24.383-19.786-2.706-6.513-1.149-11.106 2.255-11.957s6.128-.342 8 2.041c0 0 4.085-2.723 8.851.681 0 0 4.937-1.02 9.532 2.214 4.596 3.234 9.702 7.829 11.064 11.914 0 0 8.834-8.523 17.038-6.198a1.89 1.89 0 0 1 1.366 1.68c.218 2.765-.346 9.465-9.723 14.22z" fill="none"/><path stroke-linecap="round" stroke-linejoin="round" stroke="#000" stroke-width=".75" d="m133.282 237.962 5.574 12.468s8.426-1.788 11.362 3.574" fill="none"/><path fill="#FFCDB1" d="M142.133 238.642s3.616 3.745 5.148 8.468"/><path stroke-linecap="round" stroke-linejoin="round" stroke="#000" stroke-width=".75" d="M142.133 238.642s3.616 3.745 5.148 8.468" fill="none"/><path stroke-linecap="round" stroke-miterlimit="10" stroke="#FFF" d="M126.303 249.535s4.085 11.916 20.766 15.746" fill="none"/><path fill="#1FA464" d="M150.303 276.897s-3.191-5.233-1.66-7.531c1.532-2.298 19.788-7.659 23.617-3.702s2.937 9.064 2.937 9.064z"/><path stroke-linecap="round" stroke-linejoin="round" stroke="#000" stroke-width=".75" d="M150.303 276.897s-3.191-5.233-1.66-7.531c1.532-2.298 19.788-7.659 23.617-3.702s2.937 9.064 2.937 9.064z" fill="none"/><path fill="#1FD388" d="M145.962 325.408s-15.83-29.106-11.234-39.83 39.319-23.489 54.128-8.681 8 27.234 13.446 35.234c5.447 8 12.596 8.851 12.596 8.851l-25.021 30.979z"/><path stroke-linecap="round" stroke-linejoin="round" stroke="#000" stroke-width=".75" d="M145.962 325.408s-15.83-29.106-11.234-39.83 39.319-23.489 54.128-8.681 8 27.234 13.446 35.234c5.447 8 12.596 8.851 12.596 8.851l-25.021 30.979z" fill="none"/><path fill="#2EE299" d="M174.196 320.791a2.872 2.872 0 1 1-5.744 0 2.872 2.872 0 0 1 5.744 0"/><path stroke-linecap="round" stroke-linejoin="round" stroke="#FFF" d="M143.154 313.408s-9.447-19.064-6.128-25.957 10.979-8.511 10.979-8.511" fill="none"/><path fill="#2EE299" d="M157.091 291.94a2.872 2.872 0 1 1-5.744 0 2.872 2.872 0 0 1 5.744 0m34.722 12.511a2.872 2.872 0 1 1-5.744 0 2.872 2.872 0 0 1 5.744 0"/></g><g style="display:block"><path fill="#1FD388" d="M274.303 264.318c-.624-.125-15.72-1.017-30.043 3.277-24.768 7.424-28.852 20.042-28.852 20.042s64.342-.51 64.342-1.872-5.447-21.447-5.447-21.447"/><path stroke-linejoin="round" stroke="#000" stroke-width=".75" d="M274.303 264.318c-.624-.125-15.72-1.017-30.043 3.277-24.768 7.424-28.852 20.042-28.852 20.042s64.342-.51 64.342-1.872-5.447-21.447-5.447-21.447z" fill="none"/><path fill="#1FD388" d="M310.388 262.616s89.068 14.951 98.151 82.807c5.618 41.968-59.843 61.979-59.843 61.979l-29.386-70.527z"/><path stroke-linejoin="round" stroke="#000" stroke-width=".75" d="M310.388 262.616s89.068 14.951 98.151 82.807c5.618 41.968-59.843 61.979-59.843 61.979l-29.386-70.527z" fill="none"/><path fill="#FFF" d="m309.707 261.764 2.043 2.214s3.063 19.914-7.83 25.871c-.511-.17-12.085-11.233-12.085-11.233l-8.851 11.063s-17.873-10.893-12.426-24.51l4.766-3.065s11.404 18.383 34.383-.34"/><path stroke-linejoin="round" stroke="#000" stroke-width=".75" d="m309.707 261.764 2.043 2.214s3.063 19.914-7.83 25.871c-.511-.17-12.085-11.233-12.085-11.233l-8.851 11.063s-17.873-10.893-12.426-24.51l4.766-3.065s11.404 18.383 34.383-.34z" fill="none"/><path fill="#D9CFFF" d="M333.742 421.478H130.471c-12.562 0-22.746-10.184-22.746-22.746v-87.979c0-11.659 8.867-21.406 20.474-22.505l199.887-18.927c15.541-1.472 28.977 10.752 28.977 26.363v102.472c0 12.88-10.441 23.322-23.321 23.322"/><path stroke-linejoin="round" stroke="#000" stroke-width=".75" d="M333.742 421.478H130.471c-12.562 0-22.746-10.184-22.746-22.746v-87.979c0-11.659 8.867-21.406 20.474-22.505l199.887-18.927c15.541-1.472 28.977 10.752 28.977 26.363v102.472c0 12.88-10.441 23.322-23.321 23.322z" fill="none"/><path stroke-linecap="round" stroke-linejoin="round" stroke="#000" stroke-width=".75" d="M281.536 249.595s7.915-1.149 10.085-3.064" fill="none"/><path stroke-linecap="round" stroke-linejoin="round" stroke="#FFF" d="M375.75 298.615s42.638 32.427 21.957 70.214" fill="none"/><path fill="#2EE299" d="M254.878 273.063a2.872 2.872 0 1 1-5.744 0 2.872 2.872 0 0 1 5.744 0m134.042 54.383a2.872 2.872 0 1 1-5.744 0 2.872 2.872 0 0 1 5.744 0m-10.213 57.872a2.872 2.872 0 1 1-5.744 0 2.872 2.872 0 0 1 5.744 0m8.34-30.468a2.872 2.872 0 1 1-5.744 0 2.872 2.872 0 0 1 5.744 0M373.6 306.254a2.872 2.872 0 1 1-5.744 0 2.872 2.872 0 0 1 5.744 0"/><path fill="#6C31AC" d="M333.362 190.939c1.232 7.8-4.093 15.122-11.893 16.354s-15.121-4.093-16.353-11.893c-1.231-7.8 4.093-15.121 11.893-16.353s15.121 4.092 16.353 11.892"/><path stroke-linejoin="round" stroke="#000" stroke-width=".75" d="M333.362 190.939c1.232 7.8-4.093 15.122-11.893 16.354s-15.121-4.093-16.353-11.893c-1.231-7.8 4.093-15.121 11.893-16.353s15.121 4.092 16.353 11.892z" fill="none"/><path fill="#6C31AC" d="M264.345 212.615s-5.191-9.574 7.404-17.234c7.855-4.777 9.847-14.396 29.362-8.298 0 0 8.851-4.766 18.723 4.426 3.992 3.716 6.715 15.987 11.171 26.808 6.255 15.192-.09 34.233-28.532 31.064z"/><path stroke-linejoin="round" stroke="#000" stroke-width=".75" d="M264.345 212.615s-5.191-9.574 7.404-17.234c7.855-4.777 9.847-14.396 29.362-8.298 0 0 8.851-4.766 18.723 4.426 3.992 3.716 6.715 15.987 11.171 26.808 6.255 15.192-.09 34.233-28.532 31.064z" fill="none"/><path fill="#FFCDB1" d="M310.388 263.637s-7.66 9.702-21.702 8.426c-14.043-1.277-14.383-7.745-14.383-7.745l8.255-14.724s-10.723 1.022-15.574-5.617c-4.851-6.638-7.915-20.595 0-32.68 6.555-10.009 12-13.532 31.659-13.788 0 0-7.149 18.256 2.681 23.873 6.463 3.693 12.383 3.957 12.383 3.957s.702 12.064-3.83 16.341c-3.662 3.456-6.446 1.723-6.446 1.723z"/><path stroke-linejoin="round" stroke="#000" stroke-width=".75" d="M310.388 263.637s-7.66 9.702-21.702 8.426c-14.043-1.277-14.383-7.745-14.383-7.745l8.255-14.724s-10.723 1.022-15.574-5.617c-4.851-6.638-7.915-20.595 0-32.68 6.555-10.009 12-13.532 31.659-13.788 0 0-7.149 18.256 2.681 23.873 6.463 3.693 12.383 3.957 12.383 3.957s.702 12.064-3.83 16.341c-3.662 3.456-6.446 1.723-6.446 1.723z" fill="none"/><path fill="#FFB49F" d="M268.558 215.424s5.362 4.596 10.894 7.574c5.532 2.979 15.51 9.001 18.808 4.257 4.419-6.358-6.723-3.915-15.489-10.724-8.766-6.808-11.149-7.319-12.511-6.723s-3.319 3.233-1.702 5.616"/><path stroke-linecap="round" stroke-linejoin="round" stroke="#000" d="m283.792 218.148-8.298 8.34m-4.765-14.851s7.105-2.085 9.02 6.043m6.001 3.446s6.596-1.361 9.362 5.49m-16.639-17.66s3.617.468 5.234.255m-4.574 25.724s3.702 4.98 9.894.575" fill="none"/><path stroke-linecap="round" stroke-linejoin="round" stroke="#000" stroke-width=".75" d="M307.516 228.637s3.511 4.022-1.596 8.49" fill="none"/><path fill="#FFAC00" d="M306.367 244.807a2.414 2.414 0 0 1-2.407-2.407v-1.548a2.415 2.415 0 0 1 2.407-2.407 2.415 2.415 0 0 1 2.407 2.407v1.548a2.414 2.414 0 0 1-2.407 2.407"/><path stroke-linecap="round" stroke-linejoin="round" stroke="#000" stroke-width=".5" d="M306.367 244.807q0 0 0 0a2.414 2.414 0 0 1-2.407-2.407v-1.548a2.415 2.415 0 0 1 2.407-2.407 2.415 2.415 0 0 1 2.407 2.407v1.548a2.414 2.414 0 0 1-2.407 2.407" fill="none"/><path stroke-linecap="round" stroke-linejoin="round" stroke="#FFF" d="M299.495 201.339s-5.278 19.235 12.595 21.618m4.171-40.639s13.914-2.425 13.531 12.384" fill="none"/><path stroke-linecap="round" stroke-linejoin="round" stroke="#000" stroke-width=".75" d="M324.558 176.829s12.836-.734 12.504 12.112m72.39 71.632s-20.936 12.256-38.298 4.852m45.447 7.403s-18.638 10.213-34.468 3.83" fill="none"/><path fill="#FFAC00" d="M319.81 396.404h-25.993a4.62 4.62 0 0 1-4.621-4.62v-22.639a4.62 4.62 0 0 1 4.121-4.594l25.994-2.825a4.62 4.62 0 0 1 5.119 4.594v25.464a4.62 4.62 0 0 1-4.62 4.62"/><path stroke-linecap="round" stroke-linejoin="round" stroke="#000" stroke-width=".75" d="M319.81 396.404h-25.993a4.62 4.62 0 0 1-4.621-4.62v-22.639a4.62 4.62 0 0 1 4.121-4.594l25.994-2.825a4.62 4.62 0 0 1 5.119 4.594v25.464a4.62 4.62 0 0 1-4.62 4.62" fill="none"/><path stroke-linecap="round" stroke-linejoin="round" stroke="#FFF" d="M326.358 277.904c10.453-.898 19.434 7.344 19.434 17.836v37.685" fill="none"/><path fill="#FFCDB1" d="M370.008 319.158c-2.38-1.841-5.4-2.666-8.405-2.512-7.249.371-23.566 2.443-24.492 13.544-1.191 14.298 17.703 8.341 26.383 8.681 7.596.298 15.583-12.697 6.514-19.713"/><path stroke-linejoin="round" stroke="#000" stroke-width=".75" d="M370.008 319.158c-2.38-1.841-5.4-2.666-8.405-2.512-7.249.371-23.566 2.443-24.492 13.544-1.191 14.298 17.703 8.341 26.383 8.681 7.596.298 15.583-12.697 6.514-19.713z" fill="none"/><path fill="#FFCDB1" d="M370.008 341.286c-2.38-1.841-5.4-2.666-8.405-2.512-7.249.371-23.566 2.443-24.492 13.544-1.191 14.298 17.703 8.341 26.383 8.681 7.596.298 15.583-12.697 6.514-19.713"/><path stroke-linejoin="round" stroke="#000" stroke-width=".75" d="M370.008 341.286c-2.38-1.841-5.4-2.666-8.405-2.512-7.249.371-23.566 2.443-24.492 13.544-1.191 14.298 17.703 8.341 26.383 8.681 7.596.298 15.583-12.697 6.514-19.713z" fill="none"/><path fill="#FFCDB1" d="M370.008 364.094c-2.38-1.841-5.4-2.666-8.405-2.512-7.249.371-23.566 2.443-24.492 13.544-1.191 14.298 17.703 8.341 26.383 8.681 7.596.298 15.583-12.697 6.514-19.713"/><path stroke-linejoin="round" stroke="#000" stroke-width=".75" d="M370.008 364.094c-2.38-1.841-5.4-2.666-8.405-2.512-7.249.371-23.566 2.443-24.492 13.544-1.191 14.298 17.703 8.341 26.383 8.681 7.596.298 15.583-12.697 6.514-19.713z" fill="none"/><path stroke-linecap="round" stroke-linejoin="round" stroke="#FFF" d="M341.154 327.978s10.213-10.979 26.298-5.745m-26.298 27.107s10.213-10.979 26.298-5.745m-26.298 28.106s10.213-10.979 26.298-5.745" fill="none"/><path stroke-linecap="round" stroke-linejoin="round" stroke="#000" d="M101.026 421.424h285.957m-10.212-15.319h34.213" fill="none"/><path fill="#DFDCF8" d="m235.665 322.19-101.362 4.767a4.34 4.34 0 0 1-4.341-4.341v-5.684a5.955 5.955 0 0 1 5.628-5.946l98.954-7.222a5.963 5.963 0 0 1 6.398 5.946v7.203a5.277 5.277 0 0 1-5.277 5.277"/><path stroke-linejoin="round" stroke="#000" stroke-width=".75" d="m235.665 322.19-101.362 4.767a4.34 4.34 0 0 1-4.341-4.341v-5.684a5.955 5.955 0 0 1 5.628-5.946l98.954-7.222a5.963 5.963 0 0 1 6.398 5.946v7.203a5.277 5.277 0 0 1-5.277 5.277z" fill="none"/></g></g></svg>