<svg xmlns="http://www.w3.org/2000/svg" width="200" height="40" fill="none" class="UserLogo variant--" viewBox="0 0 200 40"><path fill="var(--userLogoColor, #25D366)" d="M49.99 5c-8.193 0-14.862 6.668-14.866 14.864 0 2.62.684 5.178 1.985 7.432L35 35l7.88-2.067a14.85 14.85 0 0 0 7.104 1.809h.006c8.193 0 14.862-6.67 14.866-14.865a14.77 14.77 0 0 0-4.35-10.517A14.77 14.77 0 0 0 49.99 5m0 27.231h-.005c-2.216 0-4.392-.597-6.288-1.722l-.451-.267-4.676 1.226 1.248-4.559-.294-.467a12.33 12.33 0 0 1-1.89-6.576c.003-6.813 5.546-12.355 12.362-12.355 3.3.001 6.402 1.288 8.734 3.624a12.28 12.28 0 0 1 3.616 8.74c-.002 6.813-5.545 12.356-12.356 12.356m6.777-9.253c-.37-.186-2.197-1.085-2.538-1.209s-.588-.186-.836.186c-.247.372-.959 1.209-1.175 1.457s-.434.279-.805.093-1.569-.58-2.987-1.844c-1.104-.985-1.85-2.202-2.066-2.573-.216-.372-.023-.573.163-.758.167-.166.371-.434.557-.651s.248-.372.371-.62c.124-.248.062-.465-.03-.651-.094-.186-.837-2.015-1.146-2.758-.302-.724-.608-.627-.836-.638a14 14 0 0 0-.712-.013c-.247 0-.65.093-.99.465-.341.372-1.3 1.27-1.3 3.098 0 1.829 1.33 3.595 1.516 3.843s2.619 4 6.345 5.608c.886.383 1.578.611 2.118.782.89.283 1.7.243 2.339.147.713-.107 2.198-.898 2.507-1.767.31-.867.31-1.61.216-1.766-.093-.155-.34-.248-.711-.434zm26.299-.227h-.04l-2.465-9.943h-2.97l-2.505 9.822h-.04l-2.283-9.821h-3.171l3.818 14.429h3.212l2.404-9.822h.04l2.445 9.822h3.152l3.879-14.43H85.43zm15.152-5.062q-.425-.555-1.161-.87-.738-.31-1.89-.311-.807 0-1.656.414t-1.394 1.324h-.061v-5.437h-2.868v14.428h2.868V21.76q0-1.597.526-2.294.525-.697 1.697-.697 1.029 0 1.434.637.405.636.405 1.929v5.9h2.869V20.81q0-.97-.172-1.769-.172-.796-.597-1.353zm11.818 7.224v-5.435q.001-.952-.424-1.526a2.9 2.9 0 0 0-1.09-.9 4.9 4.9 0 0 0-1.476-.434 12 12 0 0 0-1.595-.111q-.869-.001-1.727.172a5 5 0 0 0-1.546.576 3.45 3.45 0 0 0-1.13 1.07q-.446.667-.506 1.678h2.869q.081-.848.566-1.213.485-.363 1.333-.363.384 0 .717.05t.586.202q.252.152.404.425.151.273.151.737.019.444-.262.677-.284.233-.769.354a7.4 7.4 0 0 1-1.111.181q-.627.064-1.272.163-.647.1-1.283.272a3.6 3.6 0 0 0-1.132.515q-.495.345-.809.92-.313.577-.313 1.465 0 .809.273 1.394.273.587.758.97.484.386 1.131.567.646.182 1.394.182a6.5 6.5 0 0 0 1.899-.283 3.75 3.75 0 0 0 1.617-.991 4 4 0 0 0 .201 1.01h2.91q-.203-.322-.284-.97a11 11 0 0 1-.081-1.354zm-2.868-1.718q0 .245-.05.648-.05.404-.273.798-.223.395-.688.677-.464.284-1.313.283-.343 0-.667-.061a1.6 1.6 0 0 1-.566-.212 1.1 1.1 0 0 1-.384-.415 1.35 1.35 0 0 1-.141-.646q0-.404.141-.667a1.3 1.3 0 0 1 .375-.434 1.9 1.9 0 0 1 .545-.273q.312-.1.637-.162.343-.061.686-.1t.657-.102q.313-.06.587-.151.271-.09.454-.253zm8.223-9.537h-2.869v3.131h-1.737v1.92h1.737v6.164q0 .789.263 1.273.264.486.717.748a3 3 0 0 0 1.051.353q.596.09 1.263.091.425 0 .87-.019a7 7 0 0 0 .808-.081v-2.223a4 4 0 0 1-.425.06 5 5 0 0 1-.464.021q-.727 0-.97-.243-.241-.243-.241-.97v-5.174h2.101v-1.92h-2.101v-3.132zm11.858 9.003a2.6 2.6 0 0 0-.747-.83 4 4 0 0 0-1.061-.535 13 13 0 0 0-1.222-.343 46 46 0 0 0-1.192-.263 10 10 0 0 1-1.041-.272 2.2 2.2 0 0 1-.736-.395.78.78 0 0 1-.282-.626q-.001-.324.161-.515a1.1 1.1 0 0 1 .394-.294q.233-.1.515-.131.283-.03.525-.03.767 0 1.334.293.566.294.625 1.121h2.728q-.081-.97-.495-1.607a3.3 3.3 0 0 0-1.04-1.02 4.3 4.3 0 0 0-1.425-.546 8.3 8.3 0 0 0-1.645-.161q-.849 0-1.656.15a4.6 4.6 0 0 0-1.455.527 2.9 2.9 0 0 0-1.041 1.02q-.394.646-.394 1.657 0 .687.284 1.163.282.474.745.788.467.313 1.062.505.596.194 1.222.334 1.537.323 2.395.648.859.322.858.97 0 .383-.181.635a1.4 1.4 0 0 1-.455.404 2.1 2.1 0 0 1-.606.222 3 3 0 0 1-.637.071q-.424 0-.818-.1a2.1 2.1 0 0 1-.698-.314 1.7 1.7 0 0 1-.495-.546 1.6 1.6 0 0 1-.192-.798h-2.727q.04 1.05.476 1.748a3.45 3.45 0 0 0 1.11 1.122q.677.424 1.547.606a8.8 8.8 0 0 0 3.524.01 4.4 4.4 0 0 0 1.525-.596 3.3 3.3 0 0 0 1.081-1.121q.414-.698.414-1.729 0-.727-.282-1.221zm5.697-9.853-5.455 14.43h3.192l1.131-3.214h5.394l1.09 3.214h3.294l-5.394-14.43zm-.303 8.853 1.879-5.295h.04l1.819 5.295zm18.869-3.456a4.4 4.4 0 0 0-1.475-1.232q-.888-.465-2.12-.465-.97 0-1.778.383-.809.384-1.333 1.233h-.041v-1.335h-2.728v14.107h2.871v-4.951h.039q.525.768 1.345 1.16a4.1 4.1 0 0 0 1.788.395q1.152-.001 2.01-.445a4.3 4.3 0 0 0 1.434-1.193 5.2 5.2 0 0 0 .86-1.717q.28-.97.282-2.021-.002-1.11-.282-2.133a5.3 5.3 0 0 0-.87-1.788zm-1.838 5.072q-.123.607-.414 1.06-.293.456-.769.739-.474.283-1.181.284c-.471 0-.848-.095-1.171-.284a2.26 2.26 0 0 1-.778-.738 3.2 3.2 0 0 1-.424-1.061 5.8 5.8 0 0 1-.131-1.232c0-.416.039-.85.12-1.253a3.2 3.2 0 0 1 .416-1.072q.29-.464.768-.757.474-.293 1.181-.294c.471 0 .846.099 1.161.294q.476.292.778.768t.435 1.08a5.8 5.8 0 0 1 .13 1.235q0 .627-.121 1.23zm14.141-3.284a5.2 5.2 0 0 0-.869-1.788 4.4 4.4 0 0 0-1.474-1.232q-.89-.465-2.122-.465-.97 0-1.777.383-.809.384-1.334 1.233h-.039v-1.335h-2.728v14.107h2.869v-4.951h.041q.525.768 1.343 1.16a4.1 4.1 0 0 0 1.788.395q1.151-.001 2.01-.445a4.25 4.25 0 0 0 1.434-1.193q.576-.747.859-1.717t.283-2.021q0-1.11-.283-2.133zm-2.708 3.284a3 3 0 0 1-.414 1.06q-.293.456-.768.739-.474.283-1.182.284c-.471 0-.848-.095-1.172-.284a2.26 2.26 0 0 1-.778-.738 3.2 3.2 0 0 1-.424-1.061 5.8 5.8 0 0 1-.132-1.232c0-.416.041-.85.122-1.253a3.2 3.2 0 0 1 .415-1.072q.292-.464.768-.757.474-.293 1.181-.294c.472 0 .845.099 1.161.294q.477.292.779.768.304.476.434 1.08.133.608.132 1.235 0 .627-.122 1.23z"/></svg>